<?xml version="1.0" standalone="no"?>
<!DOCTYPE svg PUBLIC "-//W3C//DTD SVG 20010904//EN"
 "http://www.w3.org/TR/2001/REC-SVG-20010904/DTD/svg10.dtd">
<svg version="1.0" xmlns="http://www.w3.org/2000/svg"
 width="1372.000000pt" height="1372.000000pt" viewBox="0 0 1372.000000 1372.000000"
 preserveAspectRatio="xMidYMid meet">
<metadata>
Created by potrace 1.11, written by Peter Selinger 2001-2013
</metadata>
<g transform="translate(0.000000,1372.000000) scale(0.100000,-0.100000)"
fill="#000000" stroke="none">
<path d="M4610 10165 c-94 -19 -239 -76 -248 -97 -2 -5 -8 -8 -14 -8 -37 0
-197 -162 -254 -257 -116 -193 -139 -380 -80 -633 21 -86 105 -226 186 -309
105 -108 209 -170 365 -216 81 -25 268 -29 355 -9 313 73 547 312 606 621 18
95 12 254 -14 348 -72 263 -280 472 -547 547 -88 25 -263 31 -355 13z"/>
<path d="M5840 9425 c0 -181 3 -235 13 -235 6 -1 329 -3 717 -4 388 -2 721 -7
740 -10 33 -5 99 -18 110 -21 3 -1 21 -5 40 -9 38 -9 182 -66 190 -75 7 -9 42
-30 66 -40 22 -10 108 -86 160 -141 102 -110 171 -256 210 -444 12 -56 20
-307 12 -348 -2 -10 49 -14 250 -16 138 -1 252 1 253 5 17 132 13 319 -11 483
-67 465 -371 841 -805 994 -67 24 -138 44 -180 52 -11 2 -31 6 -45 9 -28 6
-73 12 -175 24 -38 5 -402 9 -807 10 l-738 2 0 -236z"/>
<path d="M4823 7025 l0 -1225 256 2 256 3 0 450 0 450 495 2 c272 1 525 2 563
2 l67 1 0 239 0 239 -552 0 c-304 0 -558 1 -563 1 -7 1 -10 180 -10 531 l0
530 -256 0 -256 0 0 -1225z"/>
<path d="M7599 7415 c-2 -2 -17 -5 -34 -8 -44 -7 -149 -39 -155 -46 -3 -4 -20
-13 -38 -21 -59 -23 -152 -89 -211 -148 -258 -257 -303 -646 -113 -965 67
-112 215 -241 345 -301 89 -41 180 -59 297 -60 133 -1 183 5 262 33 82 28 125
50 192 94 210 141 333 363 341 617 4 117 -7 197 -39 289 -17 47 -70 155 -86
174 -5 7 -30 37 -55 68 -24 31 -64 72 -87 90 -24 18 -45 36 -48 40 -17 20
-149 86 -225 111 -78 27 -107 31 -216 34 -70 1 -129 1 -130 -1z"/>
<path d="M8389 5573 c-11 -305 -115 -566 -291 -729 -90 -84 -302 -214 -349
-214 -8 0 -19 -4 -25 -10 -13 -13 -148 -47 -264 -67 -74 -12 -197 -16 -560
-19 -256 -2 -477 -4 -492 -4 l-28 0 0 -236 0 -236 533 5 c292 2 543 7 557 10
14 3 47 8 75 12 86 11 238 43 305 65 36 12 72 23 80 25 34 8 190 81 265 123
179 102 325 227 432 370 40 53 118 179 118 192 1 3 6 15 13 27 6 12 23 54 38
95 14 40 28 80 31 88 3 8 8 24 10 34 2 11 10 46 19 78 8 32 17 77 20 101 3 23
7 53 10 67 2 14 7 78 10 143 l6 117 -256 0 -256 0 -1 -37z"/>
<path d="M5085 5444 c-141 -29 -279 -101 -380 -199 -171 -166 -248 -356 -241
-595 7 -207 84 -382 232 -525 77 -74 76 -73 150 -117 295 -173 665 -133 925
100 50 45 137 161 167 223 89 184 102 344 47 580 -9 41 -61 149 -98 203 -82
123 -232 243 -368 294 -136 50 -300 64 -434 36z"/>
</g>
</svg>
